# xmcd
#
# Track frame offsets:
# 150
# 12230
# 25804
# 37424
# 51335
# 72840
# 88659
# 102995
# 119355
# 134787
# 149710
# 162816
# 176388
# 195662
# 205860
# 219854
# 237906
# 252204
# 268155
# 285277
#
# Disc length: 4023 seconds
#
#
# Revision: 0
# Processed by: cddbd v1.5.2PL0 Copyright (c) Steve Scherf et al.
# Submitted via: FreeRIP 2.95 
#
DISCID=2d0fb514
DTITLE=Variios Interpretes - Os Reis Da Viola
DYEAR=2007
DGENRE=Sertanejo
TTITLE0=O carreteiro - Lourenço and Lourival
TTITLE1=Viola boneca criança sapeca - Goiano and Paranaense
TTITLE2=Vacilou virou petisco - Tião Carreiro and Pardinho
TTITLE3=Trepadeira (a plantinha) - Lourenço and Lourival
TTITLE4=Legítimo doutor - Liu and Léo
TTITLE5=Pai João - As Galvão
TTITLE6=Saudade da minha terra - Belmont and Amaral
TTITLE7=Evolução da minha terra - Lourenço and Lourival
TTITLE8=Travessia do Araguaia - Tião Carreiro and Pardinho
TTITLE9=Fazenda São Francisco ( maior proesa) - Zico and Zeca
TTITLE10=Casa de capim - Goiano and Paranaense
TTITLE11=Seguindo seus passos - Peão Carreiro and Zé Paulo
TTITLE12=A sementinha - Liu and Léo
TTITLE13=O Lavrador e o Operário - Léo Canhoto and Robertinho
TTITLE14=O mundo no avesso - Tião Carreiro and Pardinho
TTITLE15=Meu recanto meu paraíso - Goiano and Paranaense
TTITLE16=Loira do bar  - Mococa and Paraíso
TTITLE17=O milagre do ladrão - Zilo and Zalo
TTITLE18=Couro de Boi - Palmeira and Biá
TTITLE19=Caminheiro - Liu and Léo
EXTD=
EXTT0=
EXTT1=
EXTT2=
EXTT3=
EXTT4=
EXTT5=
EXTT6=
EXTT7=
EXTT8=
EXTT9=
EXTT10=
EXTT11=
EXTT12=
EXTT13=
EXTT14=
EXTT15=
EXTT16=
EXTT17=
EXTT18=
EXTT19=
PLAYORDER=
